<?xml version="1.0" standalone="no"?><!DOCTYPE svg PUBLIC "-//W3C//DTD SVG 1.1//EN" "http://www.w3.org/Graphics/SVG/1.1/DTD/svg11.dtd"><svg t="1552474172057" class="icon" style="" viewBox="0 0 1024 1024" version="1.1" xmlns="http://www.w3.org/2000/svg" p-id="5433" xmlns:xlink="http://www.w3.org/1999/xlink" width="200" height="200"><defs><style type="text/css"></style></defs><path d="M296.482698 344.245734c-17.474403 0-32.036405 14.562002-32.036405 32.036405v79.799772c0 17.474403 14.562002 32.036405 32.036405 32.036405s32.036405-14.562002 32.036405-32.036405V376.282139c-0.58248-17.474403-14.562002-32.036405-32.036405-32.036405z m159.599545 295.899886h8.154721c48.928328 0 87.954494-39.608646 87.954494-87.954494V376.282139c0-13.397042-10.484642-23.881684-23.881684-23.881684s-23.881684 10.484642-23.881684 23.881684v184.063709c0 7.572241-2.9124 14.562002-8.154721 20.969283l-0.58248 0.58248c-9.319681 9.902162-22.716724 10.484642-23.881684 10.484642h-16.309442c-13.397042 0-23.881684 10.484642-23.881684 23.881683 0.58248 13.397042 11.649602 23.881684 24.464164 23.881684zM720.528204 344.245734c-17.474403 0-32.036405 14.562002-32.036405 32.036405v79.799772c0 17.474403 14.562002 32.036405 32.036405 32.036405s32.036405-14.562002 32.036405-32.036405V376.282139c0-17.474403-14.562002-32.036405-32.036405-32.036405zM512.000332 0C229.497487 0 0.000332 229.497156 0.000332 512s228.914676 512 512 512 512-228.914676 512-512S795.085656 0 512.000332 0z m0 976.236633c-256.29124 0-464.236633-207.945392-464.236633-464.236633S255.709091 48.345848 512.000332 48.345848s464.236633 207.945392 464.236632 464.236632-207.362912 463.654152-464.236632 463.654153z m156.104664-269.688283c-7.572241 0-13.979522 2.9124-19.221843 7.572242-35.531286 33.783845-83.877133 54.170648-136.882821 54.170648s-100.769056-20.386803-136.882822-54.170648c-4.659841-4.659841-11.649602-6.989761-18.639363-6.989762-15.726962 0-27.959044 12.814562-27.959044 27.959045 0 9.319681 4.659841 17.474403 11.649602 22.716723 45.433447 41.356086 106.011377 66.40273 171.831627 66.402731 66.98521 0 128.14562-25.629124 174.161547-68.150171 5.824801-5.242321 9.902162-12.814562 9.902161-21.551763 0.58248-15.144482-12.232082-27.959044-27.959044-27.959045z" p-id="5434" fill="#1EAAF1"></path></svg>