<?xml version="1.0" standalone="no"?><!DOCTYPE svg PUBLIC "-//W3C//DTD SVG 1.1//EN" "http://www.w3.org/Graphics/SVG/1.1/DTD/svg11.dtd"><svg t="1552548692592" class="icon" style="" viewBox="0 0 1033 1024" version="1.1" xmlns="http://www.w3.org/2000/svg" p-id="10746" xmlns:xlink="http://www.w3.org/1999/xlink" width="201.7578125" height="200"><defs><style type="text/css"></style></defs><path d="M344.91018 935.08982H70.51497a70.51497 70.51497 0 0 1-70.51497-69.748503V70.51497A70.51497 70.51497 0 0 1 70.51497 0h741.173653a70.51497 70.51497 0 0 1 69.748503 70.51497v293.556886a26.05988 26.05988 0 0 1-26.826348 26.826348 26.826347 26.826347 0 0 1-26.826347-26.826348V70.51497a16.095808 16.095808 0 0 0-16.095808-16.862275H70.51497A16.862275 16.862275 0 0 0 53.652695 70.51497v794.826347a16.862275 16.862275 0 0 0 16.862275 16.095809H344.91018a26.826347 26.826347 0 0 1 26.826347 26.826347 26.826347 26.826347 0 0 1-26.826347 26.826347z" fill="#1EAAF1" p-id="10747"></path><path d="M666.826347 229.94012H184.718563a26.826347 26.826347 0 0 1-26.826347-26.826348 26.826347 26.826347 0 0 1 26.826347-26.826347H666.826347a26.826347 26.826347 0 0 1 26.826348 26.826347 26.826347 26.826347 0 0 1-26.826348 26.826348zM564.886228 407.760479h-383.233533a26.826347 26.826347 0 1 1 0-53.652695h383.233533a26.826347 26.826347 0 0 1 0 53.652695zM434.586826 584.047904H184.718563a26.826347 26.826347 0 0 1-26.826347-26.826347 26.826347 26.826347 0 0 1 26.826347-26.826347h249.868263a26.826347 26.826347 0 0 1 25.293414 26.826347 26.826347 26.826347 0 0 1-25.293414 26.826347zM434.586826 759.568862H184.718563a26.826347 26.826347 0 1 1 0-53.652694h249.868263a26.826347 26.826347 0 0 1 0 53.652694zM733.508982 811.688623A196.982036 196.982036 0 1 1 930.491018 613.173653a196.982036 196.982036 0 0 1-196.982036 198.51497z m0-351.808383a157.125749 157.125749 0 1 0 157.892216 153.293413 157.125749 157.125749 0 0 0-157.892216-153.293413z" fill="#1EAAF1" p-id="10748"></path><path d="M871.473054 1024l-118.035928-225.341317a18.39521 18.39521 0 0 1 8.431137-26.059881 19.161677 19.161677 0 0 1 26.059881 7.664671l76.646706 153.293413 27.592815-66.682635 66.682634 9.197605-86.610778-160.958084a19.928144 19.928144 0 0 1 34.491018-19.161676l127.233533 229.94012-114.203593-18.39521zM598.610778 1020.167665l-46.754491-113.437126-112.670658 13.02994 124.167664-222.275449a19.928144 19.928144 0 0 1 26.059881-7.664671 19.161677 19.161677 0 0 1 7.66467 26.059881l-86.610778 153.293413 65.916168-9.197605 26.05988 65.149701 76.646706-147.161677a19.161677 19.161677 0 0 1 25.293414-8.431138 19.161677 19.161677 0 0 1 8.431137 26.05988z" fill="#1EAAF1" p-id="10749"></path></svg>