<?xml version="1.0" standalone="no"?><!DOCTYPE svg PUBLIC "-//W3C//DTD SVG 1.1//EN" "http://www.w3.org/Graphics/SVG/1.1/DTD/svg11.dtd"><svg t="1552474075547" class="icon" style="" viewBox="0 0 1024 1024" version="1.1" xmlns="http://www.w3.org/2000/svg" p-id="4635" xmlns:xlink="http://www.w3.org/1999/xlink" width="200" height="200"><defs><style type="text/css"></style></defs><path d="M529.801846 319.698051a105.025641 105.025641 0 1 0 69.474462 69.474462 52.512821 52.512821 0 1 1-69.474462-69.474462z m337.106051 303.156513l103.345231 305.677128a52.512821 52.512821 0 0 1-49.755897 69.316923l-841.412923-0.078769a52.512821 52.512821 0 0 1-49.782154-69.159384L131.282051 623.668513C97.831385 563.357538 78.769231 493.961846 78.769231 420.102564 78.769231 188.074667 266.843897 0 498.871795 0s420.102564 188.074667 420.102564 420.102564c0 73.517949-18.904615 142.651077-52.066462 202.752z m-77.403897 100.562051A418.684718 418.684718 0 0 1 498.871795 840.205128a418.684718 418.684718 0 0 1-290.238359-116.36841L152.339692 892.717949l693.300513 0.105025-56.136205-169.380102zM813.948718 420.102564c0-174.001231-141.075692-315.076923-315.076923-315.076923S183.794872 246.101333 183.794872 420.102564s141.075692 315.076923 315.076923 315.076923 315.076923-141.075692 315.076923-315.076923z m-525.128205 0a210.051282 210.051282 0 1 1 420.102564 0 210.051282 210.051282 0 0 1-420.102564 0z" p-id="4636" fill="#1EAAF1"></path></svg>