<?xml version="1.0" standalone="no"?><!DOCTYPE svg PUBLIC "-//W3C//DTD SVG 1.1//EN" "http://www.w3.org/Graphics/SVG/1.1/DTD/svg11.dtd"><svg t="1553777392111" class="icon" style="" viewBox="0 0 1024 1024" version="1.1" xmlns="http://www.w3.org/2000/svg" p-id="2560" xmlns:xlink="http://www.w3.org/1999/xlink" width="40" height="40"><defs><style type="text/css"></style></defs><path d="M512 1024C229.23264 1024 0 794.76736 0 512S229.23264 0 512 0s512 229.23264 512 512-229.23264 512-512 512z m143.72864-741.13024h-58.20416v-36.98688H574.2592v36.98688h-139.6736v-36.98688h-23.26528v36.98688h-58.20416c-38.56384 0-69.8368 33.13664-69.8368 74.01472v308.38784c0 40.89856 31.27296 73.97376 69.8368 73.97376h302.57152c38.56384 0 69.8368-33.11616 69.8368-73.97376V356.90496c0-40.89856-31.232-74.01472-69.8368-74.01472h0.04096z m46.55104 98.67264h-395.6736v-24.63744c0-27.25888 20.84864-49.3568 46.55104-49.3568h58.20416v36.98688h23.26528v-36.98688h139.6736v36.98688h23.26528v-36.98688h58.20416c25.7024 0 46.55104 22.07744 46.55104 49.3568v24.65792h-0.04096zM466.00192 638.89408l-70.98368-67.09248a14.82752 14.82752 0 0 1-3.76832-10.32192c0-3.87072 1.2288-7.72096 3.76832-10.30144a14.1312 14.1312 0 0 1 10.07616-3.87072c3.76832 0 7.53664 1.3312 10.09664 3.87072l60.90752 56.79104 143.1552-153.1904a14.09024 14.09024 0 0 1 10.05568-3.85024c3.76832 0 7.55712 1.29024 10.09664 3.87072a14.82752 14.82752 0 0 1 3.76832 10.30144 14.86848 14.86848 0 0 1-3.76832 10.32192l-153.21088 163.47136a14.2336 14.2336 0 0 1-10.07616 3.85024 14.35648 14.35648 0 0 1-10.11712-3.85024z" fill="#F88181" p-id="2561"></path></svg>