<?xml version="1.0" standalone="no"?><!DOCTYPE svg PUBLIC "-//W3C//DTD SVG 1.1//EN" "http://www.w3.org/Graphics/SVG/1.1/DTD/svg11.dtd"><svg t="1552473488476" class="icon" style="" viewBox="0 0 1024 1024" version="1.1" xmlns="http://www.w3.org/2000/svg" p-id="1660" xmlns:xlink="http://www.w3.org/1999/xlink" width="200" height="200"><defs><style type="text/css"></style></defs><path d="M319.715963051799 468.9513347903131C369.9394052592595 569.398219849843 454.60178015015686 651.1906836837873 555.048665209687 704.284036948201l78.92255277699115-78.92255277699115c10.044688699335694-10.044688699335694 24.394243339492046-14.349555284765268 35.87388756730425-7.174777642382634 38.743798624257316 14.349555284765268 81.79246383394414 21.524332282538982 127.7110394559752 21.524332282538982 21.524332282538982 0 35.87388756730425 14.349555284765268 35.87388756730425 35.87388756730425l0 120.53626181359265c0 21.524332282538982-14.349555284765268 35.87388756730425-35.87388756730425 35.87388756730425C461.77655779253945 831.9950764041762 192.0049235958237 562.2234422074606 192.0049235958237 227.8788111631282c0-21.524332282538982 14.349555284765268-35.87388756730425 35.87388756730425-35.87388756730425l124.84112839902215 0c21.524332282538982 0 35.87388756730425 14.349555284765268 35.87388756730425 35.87388756730425 0 43.04866520968688 7.174777642382634 86.09732977476487 21.524332282538982 127.7110394559752 2.8699110569530535 10.044688699335694 0 24.394243339492046-7.174777642382634 35.87388756730425L319.715963051799 468.9513347903131z" fill="#03A9F4" p-id="1661"></path></svg>