<?xml version="1.0" standalone="no"?><!DOCTYPE svg PUBLIC "-//W3C//DTD SVG 1.1//EN" "http://www.w3.org/Graphics/SVG/1.1/DTD/svg11.dtd"><svg t="1552549495402" class="icon" style="" viewBox="0 0 1024 1024" version="1.1" xmlns="http://www.w3.org/2000/svg" p-id="11504" xmlns:xlink="http://www.w3.org/1999/xlink" width="200" height="200"><defs><style type="text/css"></style></defs><path d="M30.432022 490.43995L490.886828 29.985145C509.682394 11.482116 535.279468 0 563.363116 0h358.359045A102.388298 102.388298 0 0 1 1024.110459 102.388298v358.359045c0 28.44932-11.555251 54.046395-30.204548 72.403154l-460.747343 460.747343a101.949491 101.949491 0 0 1-144.660039 0l-358.359045-358.359044a102.388298 102.388298 0 0 1 0.292538-145.098846zM844.930937 255.970746c42.491144 0 76.791224-34.30008 76.791224-76.791224 0-42.491144-34.30008-76.791224-76.791224-76.791224-42.491144 0-76.791224 34.30008-76.791224 76.791224 0 42.491144 34.30008 76.791224 76.791224 76.791224z" fill="#1EAAF1" p-id="11505"></path></svg>